<?xml version="1.0" standalone="no"?>
<!DOCTYPE svg PUBLIC "-//W3C//DTD SVG 20010904//EN"
 "http://www.w3.org/TR/2001/REC-SVG-20010904/DTD/svg10.dtd">
<svg version="1.0" xmlns="http://www.w3.org/2000/svg"
 width="624.000000pt" height="624.000000pt" viewBox="0 0 624.000000 624.000000"
 preserveAspectRatio="xMidYMid meet">
<metadata>
Created by potrace 1.14, written by Peter Selinger 2001-2017
</metadata>
<g transform="translate(0.000000,624.000000) scale(0.100000,-0.100000)"
fill="#000000" stroke="none">
<path d="M1199 6066 c-2 -2 -24 -6 -49 -9 -117 -14 -256 -59 -375 -120 -44
-23 -81 -45 -83 -49 -2 -4 -8 -8 -13 -8 -29 0 -219 -165 -296 -257 -58 -68
-113 -148 -113 -162 0 -6 -4 -11 -9 -11 -5 0 -15 -16 -22 -35 -7 -19 -16 -35
-20 -35 -6 0 -28 -53 -30 -70 0 -3 -4 -9 -9 -15 -15 -18 -60 -147 -54 -156 3
-5 1 -9 -4 -9 -5 0 -14 -24 -21 -52 -6 -29 -14 -64 -17 -78 -4 -14 -8 -36 -9
-50 -2 -14 -4 -25 -5 -25 -15 0 -22 -3417 -7 -3525 4 -30 9 -68 12 -85 22
-159 126 -415 221 -548 19 -26 34 -49 34 -51 0 -20 212 -231 271 -270 24 -17
49 -35 54 -40 23 -24 189 -106 270 -134 65 -23 166 -48 236 -59 62 -9 3853 -9
3914 1 51 8 59 9 129 20 21 3 43 9 50 13 6 4 17 9 24 10 29 7 47 12 50 13 1 2
5 3 10 5 11 3 52 20 107 46 138 62 369 249 439 353 14 21 26 35 26 30 0 -22
171 274 176 306 0 3 6 18 12 33 7 16 12 34 12 42 0 8 4 16 9 19 7 5 18 45 22
81 1 6 5 18 10 27 5 9 11 32 14 50 6 42 14 86 21 118 3 14 8 77 11 140 5 136
5 130 0 155 -2 11 0 30 4 43 5 12 5 22 1 22 -6 0 -8 79 -2 88 5 6 3 60 -3 74
-3 9 -1 19 6 22 7 2 7 5 1 5 -11 1 -11 52 1 70 3 6 3 11 -2 11 -9 0 -8 103 1
119 4 6 3 11 -1 11 -10 0 -9 71 0 87 4 7 3 14 -2 18 -7 4 -7 15 -1 30 5 14 6
25 2 25 -9 0 -8 72 1 87 4 7 3 14 -2 18 -7 4 -7 15 -1 30 5 14 6 25 2 25 -9 0
-8 72 1 87 4 7 3 14 -2 18 -7 4 -7 15 -1 30 5 14 6 25 2 25 -10 0 -8 73 3 90
5 8 4 15 -1 17 -11 4 -10 55 1 72 3 6 2 11 -2 11 -5 0 -7 15 -6 33 4 76 4 93
0 112 -2 11 0 30 4 43 5 12 5 22 1 22 -6 0 -8 79 -2 88 5 6 3 60 -3 74 -3 9
-1 19 6 22 7 2 7 5 1 5 -11 1 -11 52 1 70 3 6 3 11 -2 11 -9 0 -8 103 1 119 4
6 3 11 -1 11 -10 0 -9 71 0 87 4 7 3 14 -2 18 -7 4 -7 15 -1 30 5 14 6 25 2
25 -9 0 -8 72 1 87 4 7 3 14 -2 18 -7 4 -7 15 -1 30 5 14 6 25 2 25 -9 0 -8
72 1 87 4 7 3 14 -2 18 -7 4 -7 15 -1 30 5 14 6 25 2 25 -10 0 -8 73 3 90 5 8
4 15 -1 17 -11 4 -10 55 1 72 3 6 2 11 -2 11 -5 0 -7 15 -6 33 4 76 4 93 0
112 -2 11 0 30 4 43 5 12 5 22 1 22 -6 0 -8 79 -2 88 5 6 3 60 -3 74 -3 9 -1
19 6 22 7 2 7 5 1 5 -11 1 -11 52 1 70 3 6 3 11 -2 11 -9 0 -8 103 1 119 4 6
4 11 -1 11 -4 0 -8 24 -8 52 1 50 -8 134 -21 203 -3 17 -6 39 -8 50 -2 11 -4
20 -5 20 -4 0 -14 49 -15 73 -1 12 -4 22 -8 22 -5 0 -8 11 -8 24 0 14 -4 28
-10 31 -5 3 -10 15 -10 26 0 10 -4 19 -8 19 -5 0 -9 7 -9 15 0 18 -44 117 -56
126 -5 3 -8 8 -7 10 4 8 -24 59 -32 59 -4 0 -8 9 -8 19 0 11 -4 21 -9 23 -5 2
-18 19 -30 38 -37 62 -143 183 -215 248 -132 116 -277 199 -446 256 -172 57
-77 55 -2166 55 -1056 1 -1923 -1 -1925 -3z"/>
</g>
</svg>
